<?xml version="1.0" standalone="no"?>
<!DOCTYPE svg PUBLIC "-//W3C//DTD SVG 20010904//EN"
 "http://www.w3.org/TR/2001/REC-SVG-20010904/DTD/svg10.dtd">
<svg version="1.0" xmlns="http://www.w3.org/2000/svg"
 width="700.000000pt" height="700.000000pt" viewBox="0 0 700.000000 700.000000"
 preserveAspectRatio="xMidYMid meet">
<metadata>
Created by potrace 1.11, written by Peter Selinger 2001-2013
</metadata>
<g transform="translate(0.000000,700.000000) scale(0.100000,-0.100000)"
fill="#000000" stroke="none">
<path d="M3278 6995 c-1 -2 -42 -6 -90 -9 -118 -8 -230 -24 -438 -63 -63 -11
-334 -87 -408 -114 -333 -122 -589 -253 -862 -445 -69 -48 -127 -90 -130 -93
-3 -3 -36 -31 -75 -62 -72 -57 -92 -75 -205 -183 -224 -213 -436 -482 -600
-761 -56 -96 -200 -387 -200 -405 0 -5 -4 -18 -10 -28 -55 -97 -178 -519 -205
-702 -4 -24 -8 -47 -10 -50 -2 -3 -6 -37 -10 -75 -4 -39 -9 -72 -10 -75 -10
-16 -19 -221 -20 -400 0 -210 6 -325 25 -465 6 -44 13 -100 16 -124 3 -25 16
-97 30 -160 75 -352 207 -699 378 -999 20 -35 36 -68 36 -72 0 -5 3 -10 8 -12
4 -2 30 -39 57 -83 42 -68 217 -311 234 -325 3 -3 31 -34 61 -70 141 -168 393
-398 605 -552 286 -208 733 -430 1055 -524 99 -29 300 -70 389 -79 34 -4 71
-8 83 -10 127 -25 752 -25 938 0 19 2 55 7 80 10 210 26 559 110 685 165 11 5
61 26 110 46 50 21 95 41 100 45 6 4 69 37 140 75 493 257 846 544 1177 959
354 444 594 975 698 1545 6 30 12 65 14 77 3 12 7 49 11 82 3 33 7 68 9 78 9
44 19 249 19 378 1 755 -236 1473 -688 2081 l-87 117 56 158 c52 147 67 199
48 174 -4 -5 -14 -11 -22 -13 -8 -2 -69 -23 -135 -47 -66 -24 -125 -45 -131
-47 -6 -2 -58 42 -115 96 -57 54 -147 133 -199 175 -52 42 -97 78 -100 82 -24
26 -297 205 -400 261 -162 88 -202 108 -305 152 -60 26 -123 53 -140 61 -57
25 -310 104 -430 134 -121 30 -319 65 -430 76 -33 4 -71 9 -85 11 -28 6 -516
14 -522 9z"/>
</g>
</svg>
