<?xml version="1.0" encoding="UTF-8" standalone="no"?>
<svg width="66px" height="66px" viewBox="0 0 66 66" version="1.1" xmlns="http://www.w3.org/2000/svg" xmlns:xlink="http://www.w3.org/1999/xlink">
    <!-- Generator: sketchtool 40.1 (33804) - http://www.bohemiancoding.com/sketch -->
    <title>9B890B12-17D2-41B0-A2C7-5756D97923BC</title>
    <desc>Created with sketchtool.</desc>
    <defs></defs>
    <g id="Page-1" stroke="none" stroke-width="1" fill="none" fill-rule="evenodd">
        <g id="Inicio-Mobile-CLP" transform="translate(-147.000000, -995.000000)">
            <g id="footer" transform="translate(0.000000, 979.000000)">
                <g id="pasaplata-s_1" transform="translate(147.000000, 16.000000)">
                    <g>
                        <ellipse id="Oval" fill="#FAFAFA" cx="32.8374384" cy="32.8374384" rx="32.8374384" ry="32.8374384"></ellipse>
                        <path d="M47.4387192,62.2870936 C50.7743375,60.6268862 53.8041233,58.412812 56.3991133,55.7391133 C52.2521979,51.5676924 45.5689729,51.3621865 41.1735961,55.270936 C38.653855,53.7932782 35.7969489,52.9872545 32.8764532,52.9300493 C30.051133,52.9300493 26.9397044,54.0387192 24.3159606,55.7261084 C21.8520746,45.4538764 12.667139,38.2102533 2.1035468,38.2084729 C1.53783251,38.2084729 0.97862069,38.237734 0.422660099,38.2767488 C2.22328474,49.3528865 9.54840876,58.7458626 19.8520197,63.190936 C24.2249261,65.3269951 28.1264039,65.6878818 33.1202956,65.6878818 C38.1857143,65.6748768 43.377931,64.68 47.4387192,62.2870936 L47.4387192,62.2870936 Z" id="Shape" fill="#FFFFFC"></path>
                        <polygon id="Shape" fill="#0BB588" points="6.22610837 28.9717241 59.4487685 8.97339901 22.2611823 33.1040394"></polygon>
                        <polygon id="Shape" fill="#0BB588" points="45.5627586 48.1474877 59.4487685 8.97339901 27.0534975 35.0872906"></polygon>
                        <polygon id="Shape" fill="#0AA67D" points="24.7386207 44.177734 32.3790148 38.8489655 27.0534975 35.0872906"></polygon>
                        <polygon id="Shape" fill="#0B845F" points="22.2611823 33.1040394 59.4487685 8.97339901 27.0534975 35.0872906 24.7386207 44.177734"></polygon>
                        <polygon id="Shape" fill="#11BA89" points="45.5627586 48.1474877 35.2335961 28.5588177 27.7915271 34.4988177 27.0534975 35.0872906"></polygon>
                        <polygon id="Shape" fill="#11BA89" points="32.1969458 26.6178325 6.22610837 28.9717241 22.2611823 33.1040394"></polygon>
                        <path d="M45.6537931,20.0958621 C47.786601,22.1961576 47.8256158,25.4083744 45.4197044,27.3363547 C43.0137931,29.264335 39.0440394,29.2415764 36.8949754,27.1575369 L45.6537931,20.0958621 Z" id="Shape" fill="#00CC8F"></path>
                        <path d="M43.7745813,19.1432512 C43.7745813,19.1432512 41.3166502,18.1938916 38.1466995,19.7447291 C35.1133005,21.2240394 35.7635468,24.3387192 35.7635468,24.3387192 L43.7745813,19.1432512 Z" id="Shape" fill="#00C78B"></path>
                        <path d="M27.7915271,34.4988177 C27.7915271,34.4988177 43.5437438,46.1642365 43.2218719,45.5985222 C42.464335,44.2655172 45.1726108,43.293399 45.5627586,44.8052217 L59.3447291,9.04167488 L59.4487685,8.96689655 L45.5660099,48.137734 L27.0534975,35.0872906 L27.7915271,34.4988177 Z" id="Shape" fill="#00CC8F"></path>
                        <path d="M59.4195074,8.98965517 L10.1600985,27.9280788 C10.1600985,27.9280788 10.7388177,28.1914286 10.2966502,28.8189163 C9.80896552,29.5081773 7.73142857,29.0627586 7.73142857,29.0627586 L23.0122167,32.6196059 L22.2644335,33.1072906 L6.22610837,28.9749754 L59.4195074,8.98965517 Z" id="Shape" fill="#00CC8E"></path>
                        <polygon id="Shape" fill="#00C78B" points="27.6679803 35.5522167 25.4538916 43.6705419 24.7386207 44.177734 27.0534975 35.0872906"></polygon>
                        <polygon id="Shape" fill="#0C8C65" points="23.0057143 32.6196059 25.0767488 42.7536946 24.7386207 44.177734 22.2611823 33.1040394"></polygon>
                    </g>
                </g>
            </g>
        </g>
    </g>
</svg>
