<?xml version="1.0" encoding="UTF-8" standalone="no"?>
<svg width="140px" height="32px" viewBox="0 0 140 32" version="1.1" xmlns="http://www.w3.org/2000/svg" xmlns:xlink="http://www.w3.org/1999/xlink">
    <!-- Generator: sketchtool 40.1 (33804) - http://www.bohemiancoding.com/sketch -->
    <title>33D83E80-1523-420D-9989-EAC3C26EB599</title>
    <desc>Created with sketchtool.</desc>
    <defs></defs>
    <g id="Page-1" stroke="none" stroke-width="1" fill="none" fill-rule="evenodd">
        <g id="Inicio-Mobile-CLP" transform="translate(-110.000000, -12.000000)">
            <g id="top">
                <g id="pasaplata-logo" transform="translate(110.000000, 12.000000)">
                    <g id="pasaplata">
                        <path d="M51.012035,14.0606745 C51.012035,17.7625031 49.7843664,18.7663888 46.3941606,18.7663888 C44.8778749,18.7663888 43.4954406,18.6764574 42.5354748,18.5886174 L42.5354748,24.9235546 L41.0861148,24.9235546 L41.0861148,9.53273155 C42.7132463,9.37587441 43.8300691,9.35496012 46.2373035,9.35496012 C49.7760007,9.35286869 51.012035,10.3797601 51.012035,14.0606745 L51.012035,14.0606745 Z M46.220572,17.4948002 C48.6738178,17.4717945 49.5208464,16.7816231 49.5208464,14.0606745 C49.5208464,11.3397259 48.6696349,10.603543 46.220572,10.603543 C44.7252006,10.603543 43.4326977,10.603543 42.5396577,10.6265487 L42.5396577,17.4948002 L46.220572,17.4948002 Z" id="Shape" fill="#FFFFFC"></path>
                        <path d="M62.4333265,17.1497145 L62.4333265,24.911006 L61.3185951,24.911006 L61.1408237,23.0161717 C60.2477837,23.9092117 58.4428808,25.0908689 56.4121036,25.0908689 C54.5298179,25.0908689 53.3335207,24.0639775 53.3335207,22.1628689 L53.3335207,20.9080117 C53.3335207,19.2348688 54.3604121,18.2769945 56.165315,18.2769945 L61.0048808,18.2769945 L61.0048808,17.1497145 C61.0048808,15.7902859 60.4924808,15.0582859 58.7043093,15.0582859 C57.409715,15.0582859 55.5671664,15.1921373 53.9086636,15.3699088 L53.7748121,14.3241945 C55.494962,14.0340349 57.2341725,13.8711587 58.9782865,13.8368916 C61.1826522,13.8368916 62.4333265,14.6839202 62.4333265,17.1497145 L62.4333265,17.1497145 Z M61.0048808,22.0352917 L61.0048808,19.3896345 L56.3870065,19.4335545 C55.2492693,19.4774745 54.7577836,20.0609831 54.7577836,21.1066974 L54.7577836,22.0436574 C54.7577836,23.271326 55.3852122,23.8506517 56.6526179,23.8506517 C57.9200236,23.8506517 59.7123779,23.1813946 61.0048808,22.0436574 L61.0048808,22.0352917 Z" id="Shape" fill="#FFFFFC"></path>
                        <path d="M73.9863781,14.1715202 L73.8525267,15.1984116 C72.5140124,15.1314859 71.0876581,15.0645602 69.7491438,15.0645602 C67.6075209,15.0415545 66.8044123,15.0875659 66.8044123,16.7816231 C66.8044123,18.0762174 67.383738,18.3648345 68.4545495,18.5886174 L71.7778295,19.216046 C73.4509724,19.5506745 74.2749953,20.3098631 74.2749953,22.114766 C74.2749953,24.7917946 72.7796238,25.1703432 69.7909723,25.1703432 C68.4121414,25.1780239 67.0347455,25.0801379 65.670858,24.8775432 L65.7817037,23.8318289 C67.0330521,23.947097 68.2899002,23.9917849 69.5462752,23.9656803 C72.0664467,23.9426746 72.892561,23.6979775 72.892561,22.114766 C72.892561,20.8431774 72.1793838,20.5545603 71.1315781,20.3537831 L67.8313038,19.7263545 C66.1811666,19.391726 65.421978,18.5886174 65.421978,16.7816231 C65.421978,14.1945259 66.7374866,13.8159773 69.5713723,13.8368916 C71.0484655,13.8587916 72.522858,13.9705409 73.9863781,14.1715202 L73.9863781,14.1715202 Z" id="Shape" fill="#FFFFFC"></path>
                        <path d="M85.853144,17.1497145 L85.853144,24.911006 L84.7384125,24.911006 L84.5606411,23.0161717 C83.657144,23.9175775 81.8606068,25.0971432 79.8298296,25.0971432 C77.9475439,25.0971432 76.7512467,24.0702517 76.7512467,22.1691431 L76.7512467,20.914286 C76.7512467,19.2411431 77.7781382,18.2832688 79.583041,18.2832688 L84.4226068,18.2832688 L84.4226068,17.1497145 C84.4226068,15.7902859 83.9102068,15.0582859 82.1220354,15.0582859 C80.8274411,15.0582859 78.9848925,15.1921373 77.3263896,15.3699088 L77.1925382,14.3241945 C78.9147565,14.0337276 80.6560755,13.8708503 82.4022868,13.8368916 C84.6045611,13.8368916 85.853144,14.6839202 85.853144,17.1497145 L85.853144,17.1497145 Z M84.4246983,22.0352917 L84.4246983,19.3896345 L79.8068239,19.4335545 C78.6690868,19.4774745 78.177601,20.0609831 78.177601,21.1066974 L78.177601,22.0436574 C78.177601,23.271326 78.8050296,23.8506517 80.0724353,23.8506517 C81.3398411,23.8506517 83.1321954,23.1813946 84.4246983,22.0436574 L84.4246983,22.0352917 Z" id="Shape" fill="#FFFFFC"></path>
                        <path d="M99.4808927,19.5464917 C99.4808927,23.7628117 98.0984584,25.1933489 95.3314984,25.1933489 C93.9380051,25.2120559 92.568128,24.8325826 91.3828812,24.0995317 C91.449766,24.8336878 91.4721155,25.5712215 91.4498069,26.3080803 L91.4498069,29.3636575 L89.3040012,29.3636575 L89.3040012,14.0376688 L91.0879898,14.0376688 L91.2448469,15.7108116 C92.4535905,14.501436 94.0783539,13.7990175 95.7874298,13.7469602 C98.4100813,13.7469602 99.4808927,15.8216574 99.4808927,19.5464917 L99.4808927,19.5464917 Z M97.2514299,19.523486 C97.2514299,16.5954859 96.6240013,15.6208802 95.0428813,15.6208802 C93.9051441,15.6208802 92.8803441,16.1562859 91.4518983,17.2040917 L91.4518983,22.7359203 C92.7234869,23.0475432 93.6604469,23.315246 94.7521727,23.315246 C96.559167,23.315246 97.2514299,22.6250746 97.2514299,19.523486 L97.2514299,19.523486 Z" id="Shape" fill="#FFFFFC"></path>
                        <path d="M104.500321,21.7759546 C104.500321,22.6899089 104.991807,23.1583889 105.928767,23.1583889 L106.932653,23.1583889 L107.17735,24.8315318 C106.731876,25.0406746 105.661064,25.1222403 105.102653,25.1222403 C103.42951,25.1222403 102.358698,24.1183546 102.358698,22.2674403 L102.358698,9.30058298 L104.521236,9.30058298 L104.500321,21.7759546 Z" id="Shape" fill="#FFFFFC"></path>
                        <path d="M118.105064,17.3379431 L118.105064,24.9214632 L116.411007,24.9214632 L116.16631,23.2044003 C115.363202,24.0305146 113.802996,25.1222403 111.816139,25.1222403 C109.829281,25.1222403 108.492859,24.0284232 108.492859,22.0436574 L108.492859,20.914286 C108.492859,19.1742174 109.60759,18.1954288 111.571441,18.1954288 L115.942527,18.1954288 L115.942527,17.3379431 C115.919522,15.9994288 115.451042,15.5769602 113.77999,15.5769602 C112.709179,15.5769602 110.85199,15.7108116 109.162116,15.8446631 L108.952973,14.2614516 C110.699449,13.9593824 112.466037,13.7881065 114.238013,13.7490516 C116.76655,13.7469602 118.105064,14.5960802 118.105064,17.3379431 L118.105064,17.3379431 Z M110.678401,21.7759546 C110.678401,22.846766 111.169887,23.2922403 112.261613,23.2922403 C113.242493,23.2922403 114.691853,22.8739546 115.942527,21.7529489 L115.942527,19.8141945 L111.968813,19.8141945 C110.964927,19.8581145 110.674219,20.372606 110.674219,21.1966289 L110.678401,21.7759546 Z" id="Shape" fill="#FFFFFC"></path>
                        <path d="M124.373076,21.7759546 C124.373076,22.802846 124.751624,23.1583889 125.801522,23.1583889 L127.384733,23.1583889 L127.62943,24.8315318 C126.788287,25.0197972 125.92937,25.117258 125.06743,25.1222403 C123.216516,25.1222403 122.235636,24.0284232 122.235636,22.0666631 L122.235636,15.7108116 L120.257144,15.7108116 L120.257144,14.1485145 L122.24191,14.0376688 L122.24191,10.8482401 L124.383533,10.8482401 L124.383533,14.0376688 L127.750733,14.0376688 L127.750733,15.7108116 L124.383533,15.7108116 L124.373076,21.7759546 Z" id="Shape" fill="#FFFFFC"></path>
                        <path d="M139.04863,17.3379431 L139.04863,24.9214632 L137.354573,24.9214632 L137.109876,23.2044003 C136.306768,24.0305146 134.746562,25.1222403 132.759705,25.1222403 C130.772847,25.1222403 129.436425,24.0284232 129.436425,22.0436574 L129.436425,20.914286 C129.436425,19.1742174 130.551156,18.1954288 132.515007,18.1954288 L136.886093,18.1954288 L136.886093,17.3379431 C136.863088,15.9994288 136.394608,15.5769602 134.723556,15.5769602 C133.652745,15.5769602 131.795556,15.7108116 130.105682,15.8446631 L129.896539,14.2614516 C131.643015,13.9593824 133.409603,13.7881065 135.181579,13.7490516 C137.710116,13.7469602 139.04863,14.5960802 139.04863,17.3379431 L139.04863,17.3379431 Z M131.621967,21.7759546 C131.621967,22.846766 132.113453,23.2922403 133.205179,23.2922403 C134.186059,23.2922403 135.635419,22.8739546 136.886093,21.7529489 L136.886093,19.8141945 L132.912379,19.8141945 C131.908493,19.8581145 131.617785,20.372606 131.617785,21.1966289 L131.621967,21.7759546 Z" id="Shape" fill="#FFFFFC"></path>
                        <ellipse id="Oval" fill="#F5F5F5" cx="15.9115888" cy="15.9366859" rx="15.8948574" ry="15.8948574"></ellipse>
                        <path d="M22.978526,30.1918633 C24.5931802,29.3885901 26.0598624,28.3172191 27.3161489,27.0233489 C25.3103856,25.0021707 22.074943,24.9002597 19.9459545,26.7912004 C18.7259046,26.075551 17.3425037,25.6852318 15.9283202,25.6576461 C14.5605259,25.6576461 13.0546973,26.1951432 11.7852002,27.0108004 C10.5905649,22.041347 6.14628621,18.5378027 1.03525716,18.5363317 C0.76128001,18.5363317 0.491485721,18.5488802 0.221691431,18.5697945 C1.09446254,23.9325963 4.64302233,28.4794843 9.63312013,30.6289718 C11.7496459,31.6621376 13.6382059,31.8378176 16.0558974,31.8378176 C18.5007774,31.8378176 21.0125831,31.3484233 22.978526,30.1918633 L22.978526,30.1918633 Z" id="Shape" fill="#FFFFFC"></path>
                        <polygon id="Shape" fill="#0BB588" points="3.03048004 14.0648573 28.7926975 4.38572577 10.7917716 16.0663545"></polygon>
                        <polygon id="Shape" fill="#0BB588" points="22.070846 23.3466175 28.7926975 4.38572577 13.1111659 17.0263202"></polygon>
                        <polygon id="Shape" fill="#0AA67D" points="11.9922516 21.426686 15.6898973 18.8458631 13.1111659 17.0263202"></polygon>
                        <polygon id="Shape" fill="#0B845F" points="10.7917716 16.0663545 28.7926975 4.38572577 13.1111659 17.0263202 11.9922516 21.426686"></polygon>
                        <polygon id="Shape" fill="#11BA89" points="22.070846 23.3466175 17.0723317 13.8661716 13.4688002 16.7397945 13.1111659 17.0263202"></polygon>
                        <polygon id="Shape" fill="#11BA89" points="15.6020573 12.9250287 3.03048004 14.0648573 10.7917716 16.0663545"></polygon>
                        <path d="M22.114766,9.76906299 C23.1479317,10.7854973 23.1604803,12.3394287 22.0018289,13.2722059 C20.8431774,14.204983 18.9148802,14.1945259 17.8754402,13.1760002 L22.114766,9.76906299 Z" id="Shape" fill="#00CC8F"></path>
                        <path d="M21.2049946,9.30894869 C21.2049946,9.30894869 20.0149717,8.85092583 18.4861374,9.59965727 C17.6442048,9.99673569 17.1722001,10.908193 17.3337602,11.8249373 L21.2049946,9.30894869 Z" id="Shape" fill="#00C78B"></path>
                        <path d="M13.4688002,16.7314288 C13.4688002,16.7314288 21.0941488,22.378286 20.9393831,22.1043089 C20.5733831,21.4601489 21.880526,20.9895774 22.0729374,21.7215774 L28.7425032,4.41291434 L28.7926975,4.37736006 L22.0729374,23.3382517 L13.1111659,17.0263202 L13.4688002,16.7314288 Z" id="Shape" fill="#00CC8F"></path>
                        <path d="M28.7780575,4.39200006 L4.93577149,13.5587316 C4.93577149,13.5587316 5.21602293,13.6863088 5.00060578,13.9895659 C4.78518863,14.292823 3.75829719,14.1066859 3.75829719,14.1066859 L11.1514973,15.8279316 L10.7917716,16.0663545 L3.03048004,14.0669488 L28.7780575,4.39200006 Z" id="Shape" fill="#00CC8E"></path>
                        <polygon id="Shape" fill="#00C78B" points="13.4102402 17.2501031 12.3373373 21.1798974 11.9922516 21.426686 13.1111659 17.0263202"></polygon>
                        <polygon id="Shape" fill="#0C8C65" points="11.1535887 15.8300231 12.155383 20.7365146 11.9922516 21.426686 10.7917716 16.0663545"></polygon>
                    </g>
                </g>
            </g>
        </g>
    </g>
</svg>
